# Blender 4.1.1
# www.blender.org
mtllib lightning_vfx_mesh.mtl
o Plane
v -0.116851 -0.001973 -0.019480
v 0.559231 0.008151 -0.004498
v -0.314181 14.510211 0.949363
v 0.314181 14.510211 -0.949364
v -0.286721 13.655769 0.792659
v -0.138819 12.801329 0.299724
v 0.105071 11.966738 -0.211586
v -0.066789 11.092447 -0.438227
v -0.587673 10.218157 -0.165391
v -0.392103 9.383565 0.180712
v -0.429770 8.529124 0.405002
v -0.973562 7.605384 0.405724
v -1.584882 6.701524 0.230307
v -2.370361 5.922847 0.045890
v -2.258040 5.100883 -0.020806
v -1.246406 4.256919 0.000000
v -0.042939 3.400033 -0.022561
v 0.527778 2.558259 -0.068082
v 0.200945 1.701390 -0.042175
v -0.113442 0.716734 -0.043425
v 1.041626 0.834835 -0.004105
v 1.512913 1.703209 0.070093
v 2.021546 2.545251 0.019492
v 1.707749 3.390015 0.020623
v 0.586607 4.216094 0.069303
v -0.121860 5.100033 0.019887
v -0.486796 5.965800 0.028638
v -0.162207 6.820241 0.024375
v 0.418381 7.674683 -0.108214
v 0.902941 8.529123 -0.413705
v 1.223178 9.383565 -0.967266
v 1.203288 10.219164 -1.645084
v 1.739378 11.092447 -2.178980
v 1.443475 11.965731 -2.131489
v 0.753980 12.801329 -1.607606
v 0.390913 13.655769 -1.080984
v -1.569499 0.000000 1.569499
v 1.569499 0.000000 1.569499
v -1.569499 0.000000 -1.569499
v 1.569499 0.000000 -1.569499
v 0.240176 0.004102 -0.729885
v 0.240176 1.463871 -2.119224
v 0.382570 0.004102 -0.715860
v 0.653617 1.463871 -2.078504
v 0.519491 0.004102 -0.674326
v 1.051169 1.463871 -1.957908
v 0.645679 0.004102 -0.606877
v 1.417554 1.463871 -1.762071
v 0.756283 0.004102 -0.516107
v 1.738694 1.463871 -1.498518
v 0.847054 0.004102 -0.405502
v 2.002247 1.463871 -1.177378
v 0.914502 0.004102 -0.279315
v 2.198085 1.463871 -0.810992
v 0.956037 0.004102 -0.142393
v 2.318681 1.463871 -0.413440
v 0.970061 0.004102 -0.000000
v 2.359401 1.463871 0.000000
v 0.956037 0.004102 0.142393
v 2.318681 1.463871 0.413440
v 0.914502 0.004102 0.279315
v 2.198085 1.463871 0.810992
v 0.847054 0.004102 0.405502
v 2.002247 1.463871 1.177378
v 0.756283 0.004102 0.516107
v 1.738694 1.463871 1.498518
v 0.645679 0.004102 0.606877
v 1.417554 1.463871 1.762071
v 0.519491 0.004102 0.674326
v 1.051169 1.463871 1.957908
v 0.382570 0.004102 0.715860
v 0.653617 1.463871 2.078504
v 0.240176 0.004102 0.729885
v 0.240176 1.463871 2.119224
v 0.097783 0.004102 0.715860
v -0.173264 1.463871 2.078504
v -0.039138 0.004102 0.674326
v -0.570816 1.463871 1.957908
v -0.165326 0.004102 0.606877
v -0.937202 1.463871 1.762071
v -0.275930 0.004102 0.516107
v -1.258342 1.463871 1.498518
v -0.366701 0.004102 0.405502
v -1.521894 1.463871 1.177378
v -0.434149 0.004102 0.279315
v -1.717732 1.463871 0.810992
v -0.475684 0.004102 0.142393
v -1.838328 1.463871 0.413440
v -0.489708 0.004102 -0.000000
v -1.879048 1.463871 0.000000
v -0.475684 0.004102 -0.142393
v -1.838328 1.463871 -0.413440
v -0.434149 0.004102 -0.279315
v -1.717732 1.463871 -0.810992
v -0.366701 0.004102 -0.405502
v -1.521894 1.463871 -1.177378
v -0.275930 0.004102 -0.516107
v -1.258342 1.463871 -1.498518
v -0.165326 0.004102 -0.606877
v -0.937202 1.463871 -1.762071
v -0.039138 0.004102 -0.674326
v -0.570816 1.463871 -1.957908
v 0.097783 0.004102 -0.715860
v -0.173264 1.463871 -2.078504
vn -0.0314 0.0251 0.9992
vn 0.9450 0.0024 0.3271
vn 0.9433 0.0061 0.3318
vn 0.9199 0.0527 0.3885
vn 0.8221 0.0829 0.5632
vn 0.7023 -0.0553 0.7097
vn 0.6029 0.3051 0.7371
vn 0.5392 0.3203 0.7789
vn 0.4617 -0.0368 0.8863
vn 0.2911 -0.1786 0.9399
vn 0.0975 -0.1641 0.9816
vn 0.0089 -0.0665 0.9977
vn -0.0065 -0.0432 0.9990
vn -0.0277 0.0102 0.9996
vn -0.0331 -0.0841 0.9959
vn -0.0547 0.0112 0.9984
vn -0.0617 -0.0047 0.9981
vn -0.0372 0.0172 0.9992
vn -0.0586 -0.0121 0.9982
vn -0.0696 0.0707 0.9951
vn -0.0530 0.0040 0.9986
vn -0.0403 -0.0503 0.9979
vn -0.0322 -0.0808 0.9962
vn -0.0255 0.0077 0.9996
vn 0.0271 -0.0924 0.9954
vn 0.2336 -0.1919 0.9532
vn 0.4298 -0.1055 0.8967
vn 0.5294 0.2144 0.8208
vn 0.5370 0.4290 0.7264
vn 0.6629 -0.0131 0.7486
vn 0.7421 -0.0504 0.6684
vn 0.7688 -0.0287 0.6389
vn 0.8617 0.1538 0.4835
vn 0.9274 0.0382 0.3720
vn -0.0000 1.0000 -0.0000
vn -0.0000 0.6894 0.7244
vn -0.1413 0.6894 0.7104
vn -0.2772 0.6894 0.6692
vn -0.4024 0.6894 0.6023
vn -0.5122 0.6894 0.5122
vn -0.6023 0.6894 0.4024
vn -0.6692 0.6894 0.2772
vn -0.7104 0.6894 0.1413
vn -0.7244 0.6894 -0.0000
vn -0.7104 0.6894 -0.1413
vn -0.6692 0.6894 -0.2772
vn -0.6023 0.6894 -0.4024
vn -0.5122 0.6894 -0.5122
vn -0.4024 0.6894 -0.6023
vn -0.2772 0.6894 -0.6692
vn -0.1413 0.6894 -0.7104
vn -0.0000 0.6894 -0.7244
vn 0.1413 0.6894 -0.7104
vn 0.2772 0.6894 -0.6692
vn 0.4024 0.6894 -0.6023
vn 0.5122 0.6894 -0.5122
vn 0.6023 0.6894 -0.4024
vn 0.6692 0.6894 -0.2772
vn 0.7104 0.6894 -0.1413
vn 0.7244 0.6894 -0.0000
vn 0.7104 0.6894 0.1413
vn 0.6692 0.6894 0.2772
vn 0.6023 0.6894 0.4024
vn 0.5122 0.6894 0.5122
vn 0.4024 0.6894 0.6023
vn 0.2772 0.6894 0.6692
vn 0.1413 0.6894 0.7104
vt 0.000000 0.941176
vt 1.000000 0.941176
vt 1.000000 1.000000
vt 0.000000 1.000000
vt 0.000000 0.000000
vt 1.000000 0.000000
vt 1.000000 0.058824
vt 0.000000 0.058824
vt 1.000000 0.117647
vt 0.000000 0.117647
vt 1.000000 0.176471
vt 0.000000 0.176471
vt 1.000000 0.235294
vt 0.000000 0.235294
vt 1.000000 0.294118
vt 0.000000 0.294118
vt 1.000000 0.352941
vt 0.000000 0.352941
vt 1.000000 0.411765
vt 0.000000 0.411765
vt 1.000000 0.470588
vt 0.000000 0.470588
vt 1.000000 0.529412
vt 0.000000 0.529412
vt 1.000000 0.588235
vt 0.000000 0.588235
vt 1.000000 0.647059
vt 0.000000 0.647059
vt 1.000000 0.705882
vt 0.000000 0.705882
vt 1.000000 0.764706
vt 0.000000 0.764706
vt 1.000000 0.823529
vt 0.000000 0.823529
vt 1.000000 0.882353
vt 0.000000 0.882353
vt 0.968750 0.000000
vt 0.968750 1.000000
vt 0.937500 0.000000
vt 0.937500 1.000000
vt 0.906250 0.000000
vt 0.906250 1.000000
vt 0.875000 0.000000
vt 0.875000 1.000000
vt 0.843750 0.000000
vt 0.843750 1.000000
vt 0.812500 0.000000
vt 0.812500 1.000000
vt 0.781250 0.000000
vt 0.781250 1.000000
vt 0.750000 0.000000
vt 0.750000 1.000000
vt 0.718750 0.000000
vt 0.718750 1.000000
vt 0.687500 0.000000
vt 0.687500 1.000000
vt 0.656250 0.000000
vt 0.656250 1.000000
vt 0.625000 0.000000
vt 0.625000 1.000000
vt 0.593750 0.000000
vt 0.593750 1.000000
vt 0.562500 0.000000
vt 0.562500 1.000000
vt 0.531250 0.000000
vt 0.531250 1.000000
vt 0.500000 0.000000
vt 0.500000 1.000000
vt 0.468750 0.000000
vt 0.468750 1.000000
vt 0.437500 0.000000
vt 0.437500 1.000000
vt 0.406250 0.000000
vt 0.406250 1.000000
vt 0.375000 0.000000
vt 0.375000 1.000000
vt 0.343750 0.000000
vt 0.343750 1.000000
vt 0.312500 0.000000
vt 0.312500 1.000000
vt 0.281250 0.000000
vt 0.281250 1.000000
vt 0.250000 0.000000
vt 0.250000 1.000000
vt 0.218750 0.000000
vt 0.218750 1.000000
vt 0.187500 0.000000
vt 0.187500 1.000000
vt 0.156250 0.000000
vt 0.156250 1.000000
vt 0.125000 0.000000
vt 0.125000 1.000000
vt 0.093750 0.000000
vt 0.093750 1.000000
vt 0.062500 0.000000
vt 0.062500 1.000000
vt 0.031250 0.000000
vt 0.031250 1.000000
s 1
usemtl Material.001
f 5/1/3 36/2/34 4/3/2 3/4/2
f 1/5/1 2/6/1 21/7/19 20/8/18
f 20/8/18 21/7/19 22/9/20 19/10/17
f 19/10/17 22/9/20 23/11/21 18/12/16
f 18/12/16 23/11/21 24/13/22 17/14/15
f 17/14/15 24/13/22 25/15/23 16/16/14
f 16/16/14 25/15/23 26/17/24 15/18/13
f 15/18/13 26/17/24 27/19/25 14/20/12
f 14/20/12 27/19/25 28/21/26 13/22/11
f 13/22/11 28/21/26 29/23/27 12/24/10
f 12/24/10 29/23/27 30/25/28 11/26/9
f 11/26/9 30/25/28 31/27/29 10/28/8
f 10/28/8 31/27/29 32/29/30 9/30/7
f 9/30/7 32/29/30 33/31/31 8/32/6
f 8/32/6 33/31/31 34/33/32 7/34/5
f 7/34/5 34/33/32 35/35/33 6/36/4
f 6/36/4 35/35/33 36/2/34 5/1/3
usemtl Material.003
f 37/5/35 38/6/35 40/3/35 39/4/35
usemtl Material.002
f 41/6/36 43/37/37 44/38/37 42/3/36
f 43/37/37 45/39/38 46/40/38 44/38/37
f 45/39/38 47/41/39 48/42/39 46/40/38
f 47/41/39 49/43/40 50/44/40 48/42/39
f 49/43/40 51/45/41 52/46/41 50/44/40
f 51/45/41 53/47/42 54/48/42 52/46/41
f 53/47/42 55/49/43 56/50/43 54/48/42
f 55/49/43 57/51/44 58/52/44 56/50/43
f 57/51/44 59/53/45 60/54/45 58/52/44
f 59/53/45 61/55/46 62/56/46 60/54/45
f 61/55/46 63/57/47 64/58/47 62/56/46
f 63/57/47 65/59/48 66/60/48 64/58/47
f 65/59/48 67/61/49 68/62/49 66/60/48
f 67/61/49 69/63/50 70/64/50 68/62/49
f 69/63/50 71/65/51 72/66/51 70/64/50
f 71/65/51 73/67/52 74/68/52 72/66/51
f 73/67/52 75/69/53 76/70/53 74/68/52
f 75/69/53 77/71/54 78/72/54 76/70/53
f 77/71/54 79/73/55 80/74/55 78/72/54
f 79/73/55 81/75/56 82/76/56 80/74/55
f 81/75/56 83/77/57 84/78/57 82/76/56
f 83/77/57 85/79/58 86/80/58 84/78/57
f 85/79/58 87/81/59 88/82/59 86/80/58
f 87/81/59 89/83/60 90/84/60 88/82/59
f 89/83/60 91/85/61 92/86/61 90/84/60
f 91/85/61 93/87/62 94/88/62 92/86/61
f 93/87/62 95/89/63 96/90/63 94/88/62
f 95/89/63 97/91/64 98/92/64 96/90/63
f 97/91/64 99/93/65 100/94/65 98/92/64
f 99/93/65 101/95/66 102/96/66 100/94/65
f 101/95/66 103/97/67 104/98/67 102/96/66
f 103/97/67 41/5/36 42/4/36 104/98/67
